#Comment line ignore any data following # character 
#Hierarchical Translation and Rotation (.htr) file 
[Header]	
#Header keywords are followed by a single value 
FileType HTR		#Single word string
DataType HTRS		#Translation followed by rotation and scale data
FileVersion 1		#integer
NumSegments 84		#integer
NumFrames 2		#integer
DataFrameRate 30		#integer, data frame rate in this file
EulerRotationOrder ZYX
CalibrationUnits mm
RotationUnits Degrees
GlobalAxisofGravity Y
BoneLengthAxis Y
ScaleFactor 1.00
[SegmentNames&Hierarchy]
#CHILD	PARENT
MASTER GLOBAL
root MASTER
chest root
L_mid_tent01 root
R_mid_tent01 root
spine01 root
Bip01_Neck chest
L_humerus chest
R_humerus chest
weapon_bone chest
Bip01_Head Bip01_Neck
eye_left_bone Bip01_Head
eye_right_bone Bip01_Head
L_forearm L_humerus
L_front_hand L_forearm
L_weapon_bone L_forearm
L_front_hand01_01 L_front_hand
L_front_hand02_01 L_front_hand
L_front_hand03_01 L_front_hand
L_front_hand01_02 L_front_hand01_01
L_front_hand02_02 L_front_hand02_01
L_front_hand03_02 L_front_hand03_01
R_forearm R_humerus
R_front_hand R_forearm
R_weapon_bone R_forearm
R_front_hand01_01 R_front_hand
R_front_hand02_01 R_front_hand
R_front_hand03_01 R_front_hand
R_front_hand01_02 R_front_hand01_01
R_front_hand02_02 R_front_hand02_01
R_front_hand03_02 R_front_hand03_01
null_rope01_connect L_mid_tent01
Rope1_Seg01 null_rope01_connect
Rope1_Seg02 Rope1_Seg01
Rope1_Seg03 Rope1_Seg02
Rope1_Seg04 Rope1_Seg03
Rope1_Seg05 Rope1_Seg04
Rope1_Seg06 Rope1_Seg05
Rope1_Seg07 Rope1_Seg06
Rope1_Seg09 Rope1_Seg07
L_mid_hand01 Rope1_Seg09
L_mid_hand02 Rope1_Seg09
L_mid_hand03 Rope1_Seg09
null_rope02_connect R_mid_tent01
Rope2_Seg01 null_rope02_connect
Rope2_Seg02 Rope2_Seg01
Rope2_Seg03 Rope2_Seg02
Rope2_Seg04 Rope2_Seg03
Rope2_Seg05 Rope2_Seg04
Rope2_Seg06 Rope2_Seg05
Rope2_Seg07 Rope2_Seg06
Rope2_Seg09 Rope2_Seg07
R_mid_hand01 Rope2_Seg09
R_mid_hand02 Rope2_Seg09
R_mid_hand03 Rope2_Seg09
spine02 spine01
spine03 spine02
pelvis spine03
null_rope03_connect pelvis
null_rope04_connect pelvis
Rope3_Seg01 null_rope03_connect
Rope3_Seg02 Rope3_Seg01
Rope3_Seg03 Rope3_Seg02
Rope3_Seg04 Rope3_Seg03
Rope3_Seg05 Rope3_Seg04
Rope3_Seg06 Rope3_Seg05
Rope3_Seg07 Rope3_Seg06
Rope3_Seg08 Rope3_Seg07
Rope3_Seg09 Rope3_Seg08
R_rear_hand01 Rope3_Seg09
R_rear_hand02 Rope3_Seg09
R_rear_hand03 Rope3_Seg09
Rope4_Seg01 null_rope04_connect
Rope4_Seg02 Rope4_Seg01
Rope4_Seg03 Rope4_Seg02
Rope4_Seg04 Rope4_Seg03
Rope4_Seg05 Rope4_Seg04
Rope4_Seg06 Rope4_Seg05
Rope4_Seg07 Rope4_Seg06
Rope4_Seg08 Rope4_Seg07
Rope4_Seg09 Rope4_Seg08
L_rear_hand01 Rope4_Seg09
L_rear_hand02 Rope4_Seg09
L_rear_hand03 Rope4_Seg09
[BasePosition]
#SegmentName Tx, Ty, Tz, Rx, Ry, Rz, BoneLength
MASTER 0.000000 0.000000 0.000000 -90.000000 0.000000 0.000000 10.000000 
root 0.000000 0.000000 0.000000 0.000000 0.000000 0.000000 10.000000 
chest 0.000000 0.000000 0.000000 0.000000 0.000000 0.000000 10.000000 
L_mid_tent01 0.000000 0.000000 0.000000 0.000000 0.000000 0.000000 10.000000 
R_mid_tent01 0.000000 0.000000 0.000000 0.000000 0.000000 0.000000 10.000000 
spine01 0.000000 0.000000 0.000000 0.000000 0.000000 0.000000 10.000000 
Bip01_Neck 0.000000 0.000000 0.000000 0.000000 0.000000 0.000000 10.000000 
L_humerus 0.000000 0.000000 0.000000 0.000000 0.000000 0.000000 10.000000 
R_humerus 0.000000 0.000000 0.000000 0.000000 0.000000 0.000000 10.000000 
weapon_bone 0.000000 0.000000 0.000000 0.000000 0.000000 0.000000 10.000000 
Bip01_Head 0.000000 0.000000 0.000000 0.000000 0.000000 0.000000 10.000000 
eye_left_bone 0.000000 0.000000 0.000000 0.000000 0.000000 0.000000 10.000000 
eye_right_bone 0.000000 0.000000 0.000000 0.000000 0.000000 0.000000 10.000000 
L_forearm 0.000000 0.000000 0.000000 0.000000 0.000000 0.000000 10.000000 
L_front_hand 0.000000 0.000000 0.000000 0.000000 0.000000 0.000000 10.000000 
L_weapon_bone 0.000000 0.000000 0.000000 0.000000 0.000000 0.000000 10.000000 
L_front_hand01_01 0.000000 0.000000 0.000000 0.000000 0.000000 0.000000 10.000000 
L_front_hand02_01 0.000000 0.000000 0.000000 0.000000 0.000000 0.000000 10.000000 
L_front_hand03_01 0.000000 0.000000 0.000000 0.000000 0.000000 0.000000 10.000000 
L_front_hand01_02 0.000000 0.000000 0.000000 0.000000 0.000000 0.000000 10.000000 
L_front_hand02_02 0.000000 0.000000 0.000000 0.000000 0.000000 0.000000 10.000000 
L_front_hand03_02 0.000000 0.000000 0.000000 0.000000 0.000000 0.000000 10.000000 
R_forearm 0.000000 0.000000 0.000000 0.000000 0.000000 0.000000 10.000000 
R_front_hand 0.000000 0.000000 0.000000 0.000000 0.000000 0.000000 10.000000 
R_weapon_bone 0.000000 0.000000 0.000000 0.000000 0.000000 0.000000 10.000000 
R_front_hand01_01 0.000000 0.000000 0.000000 0.000000 0.000000 0.000000 10.000000 
R_front_hand02_01 0.000000 0.000000 0.000000 0.000000 0.000000 0.000000 10.000000 
R_front_hand03_01 0.000000 0.000000 0.000000 0.000000 0.000000 0.000000 10.000000 
R_front_hand01_02 0.000000 0.000000 0.000000 0.000000 0.000000 0.000000 10.000000 
R_front_hand02_02 0.000000 0.000000 0.000000 0.000000 0.000000 0.000000 10.000000 
R_front_hand03_02 0.000000 0.000000 0.000000 0.000000 0.000000 0.000000 10.000000 
null_rope01_connect 0.000000 0.000000 0.000000 0.000000 0.000000 0.000000 10.000000 
Rope1_Seg01 0.000000 0.000000 0.000000 0.000000 0.000000 0.000000 10.000000 
Rope1_Seg02 0.000000 0.000000 0.000000 0.000000 0.000000 0.000000 10.000000 
Rope1_Seg03 0.000000 0.000000 0.000000 0.000000 0.000000 0.000000 10.000000 
Rope1_Seg04 0.000000 0.000000 0.000000 0.000000 0.000000 0.000000 10.000000 
Rope1_Seg05 0.000000 0.000000 0.000000 0.000000 0.000000 0.000000 10.000000 
Rope1_Seg06 0.000000 0.000000 0.000000 0.000000 0.000000 0.000000 10.000000 
Rope1_Seg07 0.000000 0.000000 0.000000 0.000000 0.000000 0.000000 10.000000 
Rope1_Seg09 0.000000 0.000000 0.000000 0.000000 0.000000 0.000000 10.000000 
L_mid_hand01 0.000000 0.000000 0.000000 0.000000 0.000000 0.000000 10.000000 
L_mid_hand02 0.000000 0.000000 0.000000 0.000000 0.000000 0.000000 10.000000 
L_mid_hand03 0.000000 0.000000 0.000000 0.000000 0.000000 0.000000 10.000000 
null_rope02_connect 0.000000 0.000000 0.000000 0.000000 0.000000 0.000000 10.000000 
Rope2_Seg01 0.000000 0.000000 0.000000 0.000000 0.000000 0.000000 10.000000 
Rope2_Seg02 0.000000 0.000000 0.000000 0.000000 0.000000 0.000000 10.000000 
Rope2_Seg03 0.000000 0.000000 0.000000 0.000000 0.000000 0.000000 10.000000 
Rope2_Seg04 0.000000 0.000000 0.000000 0.000000 0.000000 0.000000 10.000000 
Rope2_Seg05 0.000000 0.000000 0.000000 0.000000 0.000000 0.000000 10.000000 
Rope2_Seg06 0.000000 0.000000 0.000000 0.000000 0.000000 0.000000 10.000000 
Rope2_Seg07 0.000000 0.000000 0.000000 0.000000 0.000000 0.000000 10.000000 
Rope2_Seg09 0.000000 0.000000 0.000000 0.000000 0.000000 0.000000 10.000000 
R_mid_hand01 0.000000 0.000000 0.000000 0.000000 0.000000 0.000000 10.000000 
R_mid_hand02 0.000000 0.000000 0.000000 0.000000 0.000000 0.000000 10.000000 
R_mid_hand03 0.000000 0.000000 0.000000 0.000000 0.000000 0.000000 10.000000 
spine02 0.000000 0.000000 0.000000 0.000000 0.000000 0.000000 10.000000 
spine03 0.000000 0.000000 0.000000 0.000000 0.000000 0.000000 10.000000 
pelvis 0.000000 0.000000 0.000000 0.000000 0.000000 0.000000 10.000000 
null_rope03_connect 0.000000 0.000000 0.000000 0.000000 0.000000 0.000000 10.000000 
null_rope04_connect 0.000000 0.000000 0.000000 0.000000 0.000000 0.000000 10.000000 
Rope3_Seg01 0.000000 0.000000 0.000000 0.000000 0.000000 0.000000 10.000000 
Rope3_Seg02 0.000000 0.000000 0.000000 0.000000 0.000000 0.000000 10.000000 
Rope3_Seg03 0.000000 0.000000 0.000000 0.000000 0.000000 0.000000 10.000000 
Rope3_Seg04 0.000000 0.000000 0.000000 0.000000 0.000000 0.000000 10.000000 
Rope3_Seg05 0.000000 0.000000 0.000000 0.000000 0.000000 0.000000 10.000000 
Rope3_Seg06 0.000000 0.000000 0.000000 0.000000 0.000000 0.000000 10.000000 
Rope3_Seg07 0.000000 0.000000 0.000000 0.000000 0.000000 0.000000 10.000000 
Rope3_Seg08 0.000000 0.000000 0.000000 0.000000 0.000000 0.000000 10.000000 
Rope3_Seg09 0.000000 0.000000 0.000000 0.000000 0.000000 0.000000 10.000000 
R_rear_hand01 0.000000 0.000000 0.000000 0.000000 0.000000 0.000000 10.000000 
R_rear_hand02 0.000000 0.000000 0.000000 0.000000 0.000000 0.000000 10.000000 
R_rear_hand03 0.000000 0.000000 0.000000 0.000000 0.000000 0.000000 10.000000 
Rope4_Seg01 0.000000 0.000000 0.000000 0.000000 0.000000 0.000000 10.000000 
Rope4_Seg02 0.000000 0.000000 0.000000 0.000000 0.000000 0.000000 10.000000 
Rope4_Seg03 0.000000 0.000000 0.000000 0.000000 0.000000 0.000000 10.000000 
Rope4_Seg04 0.000000 0.000000 0.000000 0.000000 0.000000 0.000000 10.000000 
Rope4_Seg05 0.000000 0.000000 0.000000 0.000000 0.000000 0.000000 10.000000 
Rope4_Seg06 0.000000 0.000000 0.000000 0.000000 0.000000 0.000000 10.000000 
Rope4_Seg07 0.000000 0.000000 0.000000 0.000000 0.000000 0.000000 10.000000 
Rope4_Seg08 0.000000 0.000000 0.000000 0.000000 0.000000 0.000000 10.000000 
Rope4_Seg09 0.000000 0.000000 0.000000 0.000000 0.000000 0.000000 10.000000 
L_rear_hand01 0.000000 0.000000 0.000000 0.000000 0.000000 0.000000 10.000000 
L_rear_hand02 0.000000 0.000000 0.000000 0.000000 0.000000 0.000000 10.000000 
L_rear_hand03 0.000000 0.000000 0.000000 0.000000 0.000000 0.000000 10.000000 
#Beginning of Data. Separated by tabs
#Fr	Tx	Ty	Tz	Rx	Ry	Rz	SF
[MASTER]
5 0.000000 0.000000 0.000000 0.001660 0.001660 0.001660 0.000000
6 0.000000 0.000000 0.000000 0.001660 0.001660 0.001660 0.000000
[root]
5 -27.901115 -56.731731 1304.623657 -82.716232 -15.038562 -99.575500 1306.154541
6 -30.459528 -55.364765 1448.847168 -80.485283 -10.779338 -101.934372 1450.224487
[chest]
5 -84.512650 -34.090519 0.000000 16.927975 3.691126 159.661133 91.129311
6 -84.512650 -34.090519 0.000000 21.305834 5.034071 153.970398 91.129311
[L_mid_tent01]
5 27.299513 22.177670 -249.918228 4.641298 8.786110 82.425583 252.381119
6 27.299517 22.177673 -249.918228 3.785915 12.874254 81.452225 252.381119
[R_mid_tent01]
5 23.228794 24.509907 226.238495 164.226898 -4.936860 76.419685 228.744751
6 23.228794 24.509907 226.238495 163.033203 -18.271366 80.926483 228.744751
[spine01]
5 -0.361383 -0.195265 0.000000 0.002062 0.001122 32.879829 0.410763
6 -0.361383 -0.195265 0.000000 0.002062 0.001122 32.879822 0.410763
[Bip01_Neck]
5 165.484543 71.581718 0.000119 176.643677 -1.657967 43.431911 180.302734
6 165.484543 71.581718 0.000119 176.643677 -1.657967 43.431911 180.302734
[L_humerus]
5 -13.983130 -135.272980 -120.471481 170.003433 49.365227 -86.560173 181.680161
6 -13.983130 -135.272980 -120.471481 170.655014 42.620117 -82.074425 181.680161
[R_humerus]
5 -13.983309 -135.273102 125.287651 -176.521622 -47.355324 -87.373306 184.909012
6 -13.983309 -135.273102 125.287651 -177.064682 -41.417469 -86.474258 184.909012
[weapon_bone]
5 235.964890 -300.705902 0.000000 0.000000 -89.951546 -128.212341 382.234833
6 235.964890 -300.705902 0.000000 0.000000 -89.951546 -128.212341 382.234833
[Bip01_Head]
5 213.495361 185.573257 13.612126 11.736392 8.422836 -43.797974 283.201324
6 213.611359 185.250244 17.782022 24.318663 5.173688 -43.863869 283.308411
[eye_left_bone]
5 -24.626970 125.451866 -64.772606 0.000000 -90.000000 -99.840431 143.318359
6 -24.626970 125.451866 -64.772606 0.000000 -90.000000 -99.840431 143.318359
[eye_right_bone]
5 -24.626970 125.451866 64.327362 0.000000 -89.965736 80.156380 143.117676
6 -24.626970 125.451866 64.327362 0.000000 -89.965736 80.156380 143.117676
[L_forearm]
5 322.776093 0.000000 -0.000119 0.000119 -0.002344 -95.807457 322.776093
6 322.776093 0.000000 -0.000119 0.000119 -0.002344 -95.807457 322.776093
[L_front_hand]
5 241.149185 -0.042021 -3.300071 -178.667953 -1.835447 -27.422350 241.171753
6 241.149185 -0.042021 -3.300071 -178.667953 -1.835447 -27.422350 241.171753
[L_weapon_bone]
5 156.183838 0.000000 0.000000 0.000014 0.000007 0.000001 156.183838
6 156.183838 0.000000 0.000000 0.000014 0.000007 0.000001 156.183838
[L_front_hand01_01]
5 86.095154 20.947098 -0.655860 -0.358124 -0.483585 74.301987 88.609184
6 86.095154 20.947098 -0.655860 -0.349230 -0.490139 73.139862 88.609184
[L_front_hand02_01]
5 86.935165 -11.437475 24.513514 152.741348 -59.405804 -59.444736 91.046425
6 86.935165 -11.437475 24.513514 151.025055 -58.854893 -57.448074 91.046425
[L_front_hand03_01]
5 86.637497 -14.123976 -20.424902 -152.381119 57.628048 -60.890831 90.126129
6 86.637497 -14.123976 -20.424902 -150.781433 57.074539 -58.996449 90.126129
[L_front_hand01_02]
5 71.020905 -0.000179 0.000030 0.000319 -0.002325 -105.611748 71.020905
6 71.020905 -0.000179 0.000030 0.000318 -0.002326 -105.574486 71.020905
[L_front_hand02_02]
5 71.020927 -0.000119 0.000060 0.000319 -0.002325 -105.611748 71.020927
6 71.020927 -0.000119 0.000060 0.000318 -0.002326 -105.574486 71.020927
[L_front_hand03_02]
5 71.020905 -0.000060 0.000060 0.000319 -0.002325 -105.611748 71.020905
6 71.020905 -0.000060 0.000060 0.000318 -0.002326 -105.574486 71.020905
[R_forearm]
5 322.776428 -0.000060 0.000030 0.209504 0.012586 -94.339050 322.776428
6 322.776428 -0.000060 0.000030 0.209504 0.012586 -94.339050 322.776428
[R_front_hand]
5 238.847015 -0.006795 2.210259 -2.635298 -10.645461 -26.312506 238.857239
6 238.847015 -0.006795 2.210259 -2.635298 -10.645461 -26.312506 238.857239
[R_weapon_bone]
5 155.664093 0.002503 -0.000030 0.003487 0.001180 -90.988930 155.664078
6 155.664093 0.002503 -0.000030 0.003487 0.001180 -90.988930 155.664078
[R_front_hand01_01]
5 87.624611 14.231146 22.918642 -153.171539 -59.529896 60.052429 91.683487
6 87.624611 14.231146 22.918642 -151.601074 -59.040489 58.224773 91.683487
[R_front_hand02_01]
5 89.356956 14.367283 -19.491137 153.232147 57.885738 62.134083 92.579636
6 89.356956 14.367283 -19.491137 151.761566 57.399368 60.393955 92.579636
[R_front_hand03_01]
5 87.286232 -22.307278 -0.143439 0.154710 -0.427505 -74.818466 90.091743
6 87.286232 -22.307278 -0.143439 0.146836 -0.431871 -73.769867 90.091743
[R_front_hand01_02]
5 71.020905 0.000060 0.000119 0.002323 -0.000334 106.381714 71.020905
6 71.020905 0.000060 0.000119 0.002323 -0.000334 106.381714 71.020905
[R_front_hand02_02]
5 71.020844 -0.000030 -0.000119 0.002323 -0.000334 106.381714 71.020836
6 71.020844 -0.000030 -0.000119 0.002323 -0.000334 106.381714 71.020836
[R_front_hand03_02]
5 71.020905 0.000000 0.000030 0.002323 -0.000334 106.381714 71.020905
6 71.020905 0.000000 0.000030 0.002323 -0.000334 106.381714 71.020905
[null_rope01_connect]
5 328.732483 0.000000 -0.000238 -87.352097 -74.635925 110.010841 328.732483
6 328.732483 0.000000 -0.000238 -95.046265 -71.957306 114.161377 328.732483
[Rope1_Seg01]
5 0.000007 -0.000076 0.000069 144.905365 44.110859 -172.991760 0.000103
6 0.000009 -0.000076 0.000049 -176.005798 60.989098 -151.091232 0.000091
[Rope1_Seg02]
5 139.999863 -0.000179 0.000000 -4.678755 -0.675763 9.782425 139.999863
6 139.999863 -0.000179 0.000000 -2.259769 1.397905 1.562130 139.999863
[Rope1_Seg03]
5 139.999924 0.000060 -0.000060 -7.942810 2.627721 24.785891 139.999924
6 139.999924 0.000060 -0.000060 -2.641090 4.250587 -1.586494 139.999924
[Rope1_Seg04]
5 139.999924 -0.000060 -0.000119 -8.258098 -35.960133 22.844528 139.999924
6 139.999924 -0.000060 -0.000119 -14.684996 -15.151660 46.450958 139.999924
[Rope1_Seg05]
5 139.999832 0.000119 -0.000060 -1.137187 -4.724403 1.924770 139.999832
6 139.999832 0.000119 -0.000060 -0.308608 -4.176976 7.679708 139.999832
[Rope1_Seg06]
5 139.999954 0.000119 -0.000060 -0.515890 -2.105969 0.975740 139.999954
6 139.999954 0.000119 -0.000060 0.028328 -1.800232 3.340445 139.999954
[Rope1_Seg07]
5 139.999985 0.000060 0.000000 -0.315958 -1.233263 0.559014 139.999985
6 139.999985 0.000060 0.000000 0.058710 -1.028175 1.910340 139.999985
[Rope1_Seg09]
5 121.602913 0.000119 -0.000089 -89.793175 -1.359789 0.847147 121.602913
6 121.602913 0.000119 -0.000089 -89.793175 -1.359789 0.847147 121.602913
[L_mid_hand01]
5 103.859421 1.038730 8.195221 115.408714 -54.701878 -21.722239 104.187431
6 103.859421 1.038730 8.195221 112.493240 -49.600185 -18.031643 104.187431
[L_mid_hand02]
5 105.572853 -4.139662 -10.864139 -156.174301 38.799171 -54.227280 106.211075
6 105.572853 -4.139662 -10.864139 -152.303986 36.371010 -47.886745 106.211075
[L_mid_hand03]
5 104.641464 17.579376 -3.913581 -10.556284 15.605943 59.190193 106.179977
6 104.641464 17.579376 -3.913581 -12.027911 14.512395 53.523804 106.179977
[null_rope02_connect]
5 328.732849 0.000179 -0.000119 -112.021156 80.835945 37.329510 328.732849
6 328.732849 0.000179 -0.000119 -146.267441 66.843590 7.376065 328.732849
[Rope2_Seg01]
5 -0.000035 0.000144 0.000125 -68.528168 27.083759 -0.167379 0.000193
6 -0.000043 0.000141 0.000118 -144.884140 58.603237 -35.180679 0.000189
[Rope2_Seg02]
5 139.999741 -0.000060 -0.000119 -2.706956 -5.056487 5.000275 139.999756
6 139.999741 -0.000060 -0.000119 7.002117 -5.683120 -4.380463 139.999756
[Rope2_Seg03]
5 140.000107 0.000030 0.000000 3.873827 -3.370508 -3.058315 140.000107
6 140.000107 0.000030 0.000000 0.701717 -0.772391 -0.398750 140.000107
[Rope2_Seg04]
5 139.999802 0.000000 -0.000060 -4.373733 -1.546311 6.583025 139.999802
6 139.999802 0.000000 -0.000060 4.605070 -4.948693 -3.021676 139.999802
[Rope2_Seg05]
5 139.999985 -0.000060 0.000119 -11.849272 -1.892313 23.101324 139.999985
6 139.999985 -0.000060 0.000119 8.162748 -11.783945 -6.122530 139.999985
[Rope2_Seg06]
5 139.999893 -0.000030 -0.000119 -5.011950 -5.074412 17.082983 139.999893
6 139.999893 -0.000030 -0.000119 4.839116 -11.675945 -4.191117 139.999893
[Rope2_Seg07]
5 139.999893 0.000060 -0.000060 -1.330590 -3.721283 9.353576 139.999893
6 139.999893 0.000060 -0.000060 2.504421 -10.100488 -2.747706 139.999893
[Rope2_Seg09]
5 121.338966 0.000089 -0.000060 33.793236 -1.359788 -0.847141 121.338966
6 121.338966 0.000089 -0.000060 33.793236 -1.359788 -0.847141 121.338966
[R_mid_hand01]
5 104.680779 11.144459 -10.335981 -22.984863 42.734222 60.718647 105.778534
6 104.680779 11.144459 -10.335981 -25.740593 41.350704 56.606117 105.778534
[R_mid_hand02]
5 104.070427 2.443552 8.231699 58.419525 -61.729698 28.969110 104.424065
6 104.070427 2.443552 8.231699 61.361111 -58.825871 25.577074 104.424065
[R_mid_hand03]
5 106.028137 -11.221827 -5.996406 -175.069138 15.041782 -68.893333 106.788818
6 106.028137 -11.221827 -5.996406 -174.179749 14.727765 -65.439743 106.788818
[spine02]
5 129.756927 0.001550 0.000119 -1.023899 -3.926965 6.770993 129.756927
6 129.756927 0.001550 0.000119 -1.023899 -3.926965 6.770993 129.756927
[spine03]
5 78.613892 0.087336 -4.898873 1.040681 4.146420 4.212376 78.766426
6 78.613892 0.087350 -4.898871 1.040681 4.146420 4.212376 78.766426
[pelvis]
5 169.435242 0.051022 0.000000 0.019518 -0.190233 -10.721436 169.435257
6 169.435242 0.051022 0.000000 0.019518 -0.190233 -10.721436 169.435257
[null_rope03_connect]
5 -1.257226 -2.466202 137.391083 -48.403419 -79.829102 120.952637 137.418976
6 -1.257226 -2.466202 137.391083 -47.693794 -76.489937 116.364624 137.418976
[null_rope04_connect]
5 -1.259640 -2.480268 -137.844437 -48.403419 -79.829102 120.952637 137.872513
6 -1.259640 -2.480268 -137.844437 -47.693794 -76.489937 116.364624 137.872513
[Rope3_Seg01]
5 0.000014 -0.000054 0.000055 -142.853195 -29.691385 -55.395504 0.000078
6 0.000017 -0.000053 0.000069 -136.548065 -21.223402 -62.353207 0.000089
[Rope3_Seg02]
5 139.999924 -0.000119 0.000060 4.982311 -11.453044 -6.217082 139.999924
6 139.999924 -0.000119 0.000060 6.722560 -16.721180 -4.152369 139.999924
[Rope3_Seg03]
5 139.999924 -0.000119 0.000119 24.963043 -24.833641 -14.124118 139.999924
6 139.999924 -0.000119 0.000119 32.678452 -36.222183 -8.495966 139.999924
[Rope3_Seg04]
5 139.999924 0.000119 0.000000 78.029449 -39.913960 -2.774122 139.999924
6 139.999924 0.000119 0.000000 32.466694 -28.231335 14.957541 139.999924
[Rope3_Seg05]
5 139.999924 -0.000238 0.000060 4.457418 5.957196 15.329054 139.999924
6 139.999924 -0.000238 0.000060 0.281624 4.360841 6.434961 139.999924
[Rope3_Seg06]
5 139.999893 -0.000119 -0.000060 1.080430 2.405925 4.918413 139.999893
6 139.999893 -0.000119 -0.000060 1.264881 0.747402 3.264876 139.999893
[Rope3_Seg07]
5 139.999771 0.000060 -0.000119 1.171783 0.872166 2.929083 139.999771
6 139.999771 0.000060 -0.000119 1.182360 0.182444 2.135371 139.999771
[Rope3_Seg08]
5 139.999985 -0.000060 0.000000 0.864851 0.523503 1.637803 139.999985
6 139.999985 -0.000060 0.000000 0.903314 0.135253 1.249100 139.999985
[Rope3_Seg09]
5 90.185997 -0.000179 -0.000060 89.793228 -1.359877 -0.847183 90.185997
6 90.185997 -0.000179 -0.000060 89.793228 -1.359877 -0.847183 90.185997
[R_rear_hand01]
5 103.366196 -6.073594 -10.757982 -173.471771 23.840061 -63.594990 104.101845
6 103.366196 -6.073594 -10.757982 -171.684540 23.302565 -59.125771 104.101845
[R_rear_hand02]
5 100.509819 12.039542 -7.992327 -19.370911 34.238876 61.013874 101.543350
6 100.509819 12.039542 -7.992327 -21.930750 32.777496 56.381863 101.543350
[R_rear_hand03]
5 101.539970 5.215704 5.435467 77.523735 -62.710106 14.990743 101.819031
6 101.539970 5.215704 5.435467 79.009171 -58.663548 13.282337 101.819031
[Rope4_Seg01]
5 0.000007 -0.000062 -0.000180 52.664246 -21.602541 -110.240921 0.000191
6 0.000009 -0.000059 -0.000187 50.665180 -9.895933 -113.006355 0.000197
[Rope4_Seg02]
5 139.999985 0.000060 0.000119 -0.052574 -19.756645 -15.827788 139.999985
6 139.999985 0.000060 0.000119 -2.685344 -14.128353 -19.003681 139.999985
[Rope4_Seg03]
5 139.999924 0.000000 -0.000238 -3.872096 -17.837040 -13.360063 139.999924
6 139.999924 0.000000 -0.000238 -6.944639 -12.016456 -14.949073 139.999924
[Rope4_Seg04]
5 139.999985 0.000000 0.000119 -16.300175 -10.900661 -11.311705 139.999985
6 139.999985 0.000000 0.000119 -17.728811 -5.873585 -15.055954 139.999985
[Rope4_Seg05]
5 139.999802 -0.000060 -0.000119 -91.694351 -7.821335 -27.834255 139.999802
6 139.999802 -0.000060 -0.000119 -50.600685 4.719283 -30.290110 139.999802
[Rope4_Seg06]
5 139.999924 0.000000 0.000060 -18.363794 22.478319 -4.943889 139.999924
6 139.999924 0.000000 0.000060 -18.316525 17.544922 -11.084915 139.999924
[Rope4_Seg07]
5 139.999802 0.000000 0.000000 -2.692977 9.323318 0.670496 139.999802
6 139.999802 0.000000 0.000000 -4.389307 8.999828 -2.627811 139.999802
[Rope4_Seg08]
5 139.999924 0.000000 0.000119 -2.479385 4.789172 0.571326 139.999924
6 139.999924 0.000000 0.000119 -3.179231 4.764421 -1.012074 139.999924
[Rope4_Seg09]
5 90.185791 0.000060 0.000060 -135.617828 2.228885 0.850567 90.185791
6 90.185791 0.000060 0.000060 -135.617828 2.228885 0.850567 90.185791
[L_rear_hand01]
5 101.696655 -8.392275 -7.654577 -28.015865 -27.942135 135.607544 102.329041
6 101.696655 -8.392275 -7.654577 -30.719053 -24.879360 141.681381 102.329041
[L_rear_hand02]
5 102.726799 -1.568258 5.773216 81.577332 47.415253 169.913025 102.900848
6 102.726799 -1.568258 5.773216 82.428497 41.230476 171.131027 102.900848
[L_rear_hand03]
5 104.552910 9.721220 -10.420293 -167.078079 -21.194328 -132.993347 105.519653
6 104.552910 9.721220 -10.420293 -164.822937 -19.676035 -139.457687 105.519653
